mtllib cornell_metal.mtl

v 9.788787 381.177887 80.836352
v 4.529884 381.177887 80.836352
v 9.788787 381.177887 85.482347
v 4.529884 381.177887 85.482347
v 386.255310 -385.618896 392.815308
v -389.742889 -385.891296 393.090790
v 381.487488 -385.896210 -392.158386
v -390.016510 -386.165100 -391.889099
v 390.474915 384.764587 392.545410
v 390.202698 384.488098 -392.430786
v -390.012085 384.489807 392.821686
v -390.286102 384.215302 -392.158295
v -207.367798 -153.818298 301.702698
v 17.209600 -153.764008 232.839798
v -274.826599 -153.920395 77.124802
v -53.055599 -153.865997 11.070600
v -274.745789 -385.539398 77.205704
v -52.974701 -385.484802 11.151500
v -207.286804 -385.437500 301.783112
v 17.290501 -385.382996 232.920502
v 203.763107 77.600998 45.993999
v 272.469391 77.547096 -177.227493
v -18.054399 77.499702 -22.712400
v 50.651199 77.445198 -247.337296
v -17.892599 -385.739807 -22.550699
v 50.812901 -385.793915 -247.175797
v 203.924896 -385.637909 46.155701
v 272.631012 -385.691986 -177.065704
# 28 vertices

vn 0.00000 -1.00000 0.00000
vn 0.00000 -1.00000 0.00000
vn -0.00035 1.00000 -0.00035
vn -0.00035 1.00000 -0.00035
vn -0.00035 1.00000 -0.00035
vn 0.00035 -1.00000 0.00035
vn 0.00035 -1.00000 0.00035
vn 0.00035 -1.00000 0.00035
vn -0.00035 1.00000 -0.00035
vn -0.00035 1.00000 -0.00035
vn -0.00035 1.00000 -0.00035
vn -0.28546 -0.00043 -0.95839
vn -0.28546 -0.00043 -0.95839
vn 0.00035 -1.00000 0.00035
vn 0.00035 -1.00000 0.00035
vn -0.00035 1.00000 -0.00035
vn -0.00035 1.00000 -0.00035
vn -0.00035 1.00000 -0.00035
vn -0.95627 -0.00044 -0.29249
vn -0.95627 -0.00044 -0.29249
vn 0.00035 -1.00000 0.00035
vn 0.00035 -1.00000 0.00035
vn 0.00035 0.00035 1.00000
vn 0.00035 0.00035 1.00000
vn 0.00035 0.00035 1.00000
vn 1.00000 0.00035 -0.00035
vn 1.00000 0.00035 -0.00035
vn 1.00000 0.00035 -0.00035
vn -0.99996 0.00840 0.00321
vn -0.99992 0.01131 0.00607
vn -0.99998 0.00548 0.00034
vn -0.28546 -0.00043 -0.95839
vn 0.00035 -1.00000 0.00035
vn 0.29316 0.00043 0.95606
vn 0.29316 0.00044 0.95606
vn 0.29316 0.00043 0.95606
vn 0.95329 0.00023 -0.30204
vn 0.95329 0.00023 -0.30204
vn 0.95329 0.00023 -0.30204
vn -0.95773 -0.00023 0.28768
vn -0.95773 -0.00023 0.28768
vn -0.95773 -0.00024 0.28768
vn -0.95627 -0.00044 -0.29249
vn 0.00035 -1.00000 0.00035
vn 0.95575 0.00044 0.29417
vn 0.95575 0.00044 0.29417
vn 0.95575 0.00044 0.29417
vn 0.30137 -0.00023 -0.95351
vn 0.30137 -0.00023 -0.95351
vn 0.30137 -0.00023 -0.95351
vn -0.29587 0.00023 0.95523
vn -0.29587 0.00023 0.95523
vn -0.29587 0.00023 0.95523
# 53 normal vertices

g light
usemtl light
f 3//2 4//1 2//2
f 3//2 2//2 1//1
g room
usemtl white
f 7//4 8//5 6//4
f 7//4 6//4 5//3
f 11//7 12//8 10//7
f 11//7 10//7 9//6
f 10//23 12//24 8//23
f 10//23 8//23 7//25
usemtl green
f 11//26 6//27 8//26
f 11//26 8//26 12//28
usemtl red
f 10//29 7//30 5//29
f 10//29 5//29 9//31
g smallbox
usemtl metal
f 14//10 16//11 15//10
f 14//10 15//10 13//9
f 16//12 18//13 17//12
f 16//12 17//12 15//32
f 18//14 20//15 19//14
f 18//14 19//14 17//33
f 20//34 14//35 13//34
f 20//34 13//34 19//36
f 20//37 18//38 16//37
f 20//37 16//37 14//39
f 13//40 15//41 17//40
f 13//40 17//40 19//42
g tallbox
usemtl metal
f 22//17 24//18 23//17
f 22//17 23//17 21//16
f 24//19 26//20 25//19
f 24//19 25//19 23//43
f 26//21 28//22 27//21
f 26//21 27//21 25//44
f 28//45 22//46 21//45
f 28//45 21//45 27//47
f 28//48 26//49 24//48
f 28//48 24//48 22//50
f 21//51 23//52 25//51
f 21//51 25//51 27//53
# 36 elements

